<?xml version="1.0" encoding="UTF-8"?><svg id="Layer_2" xmlns="http://www.w3.org/2000/svg" viewBox="0 0 1000 1000"><defs><style>.cls-1{fill:#fff;}</style></defs><path class="cls-1" d="M737.08,417.36c-87.16,0-157.82,70.66-157.82,157.82s70.66,157.82,157.82,157.82,157.82-70.66,157.82-157.82-70.66-157.82-157.82-157.82ZM737.08,663.45c-48.75,0-88.27-39.52-88.27-88.27s39.52-88.27,88.27-88.27,88.27,39.52,88.27,88.27-39.52,88.27-88.27,88.27Z"/><path class="cls-1" d="M266.09,417.36c-87.16,0-157.82,70.66-157.82,157.82s70.66,157.82,157.82,157.82,157.82-70.66,157.82-157.82-70.66-157.82-157.82-157.82ZM266.09,663.45c-48.75,0-88.27-39.52-88.27-88.27s39.52-88.27,88.27-88.27,88.27,39.52,88.27,88.27-39.52,88.27-88.27,88.27Z"/><path class="cls-1" d="M571.69,740.76c0-29.77-62.36-62.24-62.36-62.24-6.22-3.14-12.45-3.14-18.67,0,0,0-62.36,32.47-62.36,62.24s41.69,79.48,65.41,88.94c2.03,1.03,3.9,1.59,5.55,1.59.23,0,.49-.05.73-.06.24.01.5.06.73.06,1.64,0,3.51-.56,5.55-1.59,23.72-9.46,65.41-59.22,65.41-88.94Z"/><path class="cls-1" d="M911.74,186.94c-15.25-19.63-44.66-23.79-64.73-9.14-41.33,30.01-92.61,51.3-148.58,65.81-29.34,9.43-62.89,16.99-111.96,29.26-32.88,8.09-69.5,72.96-69.31,73.06-3.6,6.9-10.38,10.36-17.17,10.39-6.79-.03-13.57-3.48-17.17-10.39.19-.09-36.43-64.96-69.31-73.06-49.07-12.28-82.62-19.84-111.96-29.26-55.97-14.51-107.25-35.8-148.58-65.81-20.07-14.64-49.48-10.48-64.73,9.14-15.28,19.64-10.66,46.9,9.36,61.03,43.1,30.49,93.34,53.96,149.98,71.37,73.87,29.05,135.05,38.93,169.95,67.34,26.02,20.46,67.61,150.94,67.09,151.08,3.24,6.71,9.26,10.14,15.36,10.36,6.1-.22,12.12-3.65,15.36-10.36-.53-.14,41.07-130.62,67.09-151.08,34.9-28.42,96.08-38.29,169.95-67.34,56.64-17.41,106.88-40.89,149.98-71.37,20.02-14.14,24.64-41.39,9.36-61.03Z"/></svg>