<?xml version="1.0" encoding="UTF-8"?><svg id="Layer_2" xmlns="http://www.w3.org/2000/svg" viewBox="0 0 1003.84 227.52"><defs><style>.cls-1{fill:#fff;}</style></defs><path class="cls-1" d="M940.71,85.31c-29.94,0-54.22,24.27-54.22,54.22s24.27,54.22,54.22,54.22,54.22-24.27,54.22-54.22-24.27-54.22-54.22-54.22ZM940.71,169.86c-16.75,0-30.33-13.58-30.33-30.33s13.58-30.33,30.33-30.33,30.33,13.58,30.33,30.33-13.58,30.33-30.33,30.33Z"/><path class="cls-1" d="M778.9,85.31c-29.94,0-54.22,24.27-54.22,54.22s24.27,54.22,54.22,54.22,54.22-24.27,54.22-54.22-24.27-54.22-54.22-54.22ZM778.9,169.86c-16.75,0-30.33-13.58-30.33-30.33s13.58-30.33,30.33-30.33,30.33,13.58,30.33,30.33-13.58,30.33-30.33,30.33Z"/><path class="cls-1" d="M883.89,196.42c0-10.23-21.42-21.38-21.42-21.38-2.14-1.08-4.28-1.08-6.41,0,0,0-21.42,11.16-21.42,21.38s14.32,27.31,22.47,30.55c.7.35,1.34.55,1.91.55.08,0,.17-.02.25-.02.08,0,.17.02.25.02.56,0,1.21-.19,1.91-.55,8.15-3.25,22.47-20.34,22.47-30.55Z"/><path class="cls-1" d="M1000.72,6.15c-5.24-6.74-15.34-8.17-22.24-3.14-14.2,10.31-31.82,17.62-51.05,22.61-10.08,3.24-21.61,5.84-38.47,10.05-11.29,2.78-23.88,25.07-23.81,25.1-1.24,2.37-3.57,3.56-5.9,3.57-2.33-.01-4.66-1.2-5.9-3.57.07-.03-12.52-22.32-23.81-25.1-16.86-4.22-28.38-6.82-38.47-10.05-19.23-4.99-36.85-12.3-51.05-22.61-6.9-5.03-17-3.6-22.24,3.14-5.25,6.75-3.66,16.11,3.22,20.97,14.81,10.47,32.07,18.54,51.53,24.52,25.38,9.98,46.4,13.37,58.39,23.14,8.94,7.03,23.23,51.86,23.05,51.91,1.11,2.31,3.18,3.48,5.28,3.56,2.1-.07,4.16-1.25,5.28-3.56-.18-.05,14.11-44.88,23.05-51.91,11.99-9.76,33.01-13.16,58.39-23.14,19.46-5.98,36.72-14.05,51.53-24.52,6.88-4.86,8.46-14.22,3.22-20.97Z"/><path class="cls-1" d="M595.37,134.78c-1.56,0-3.25.65-4.29,1.56-1.43,1.3-2.34,4.16-2.34,6.24h13.91c-.13-2.08-1.04-4.68-2.6-6.11-1.04-1.04-2.73-1.69-4.68-1.69Z"/><path class="cls-1" d="M670,163.24c2.98-8.7,4.68-17.99,4.68-27.7h0c0-47.23-38.29-85.52-85.52-85.52H85.52C38.29,50.02,0,88.31,0,135.54h0c0,47.23,38.29,85.52,85.52,85.52h503.63c13.98,0,27.13-3.42,38.78-9.37h83.97l-41.9-48.45ZM106.32,171.58c-4.94,5.07-14.3,11.05-30.55,11.05-13.26,0-22.1-3.77-29.51-6.76l-2.86-1.17,9.49-24.44,3.38,2.6c3.25,2.47,9.88,6.37,17.55,6.37,4.29,0,6.11-1.04,6.76-1.56,1.43-1.17,1.69-2.6,1.69-3.9,0-.78-.13-2.08-1.04-2.99-1.04-1.04-2.73-1.43-5.98-2.08l-7.67-1.43c-4.94-.91-10.27-2.47-15.08-7.41-4.42-4.55-6.24-9.75-6.24-15.99,0-8.06,2.73-14.95,8.45-20.67,6.63-6.76,16.38-11.18,30.16-11.18,6.89,0,15.86,1.17,26.39,7.54l-8.45,22.1c-3.77-2.6-10.66-6.5-17.68-6.5-1.69,0-4.29.26-5.98,1.56-1.17.91-1.56,1.82-1.56,3.12,0,1.82.26,3.51,5.07,4.55l10.01,2.21c7.67,1.69,12.22,4.81,14.82,7.41,5.46,5.33,6.63,11.96,6.63,17.16,0,7.41-1.95,14.3-7.8,20.41ZM154.67,180.68h-29.51v-60.71h29.51v60.71ZM152.46,110.6c-2.73,2.86-7.54,4.68-12.61,4.68s-9.88-1.82-12.61-4.68c-2.21-2.34-3.77-5.85-3.77-9.62s1.56-7.28,3.77-9.62c2.73-2.86,7.54-4.68,12.61-4.68s9.88,1.82,12.61,4.68c2.21,2.34,3.77,5.85,3.77,9.62s-1.56,7.28-3.77,9.62ZM270.38,180.68h-28.6v-33.41c0-1.43-.13-3.25-1.43-4.55-.65-.65-1.56-1.04-2.6-1.04-.91,0-2.08.26-3.12,1.3-1.43,1.43-1.56,2.99-1.56,4.29v33.41h-28.6v-34.19c0-1.43-.39-2.6-1.04-3.51-.39-.52-1.43-1.3-2.99-1.3-1.43,0-2.6.52-3.38,1.43-1.17,1.43-1.3,3.9-1.3,5.2v32.37h-28.6v-60.71h27.82v4.68c0,1.82-.52,3.9-1.04,5.59l.91.26c1.17-2.86,3.25-6.11,5.72-8.19,3.25-2.6,8.06-4.03,12.35-4.03s8.19,1.3,10.79,3.38c2.73,2.08,5.2,5.46,6.5,9.62h.78c1.04-3.25,3.25-6.76,6.11-9.1,3.9-3.25,8.71-3.9,12.09-3.9,7.54,0,12.09,2.86,14.82,5.59,4.03,4.16,6.37,10.79,6.37,17.55v39.26ZM344.21,171.58c-4.94,5.07-14.3,11.05-30.55,11.05-13.26,0-22.1-3.77-29.51-6.76l-2.86-1.17,9.49-24.44,3.38,2.6c3.25,2.47,9.88,6.37,17.55,6.37,4.29,0,6.11-1.04,6.76-1.56,1.43-1.17,1.69-2.6,1.69-3.9,0-.78-.13-2.08-1.04-2.99-1.04-1.04-2.73-1.43-5.98-2.08l-7.67-1.43c-4.94-.91-10.27-2.47-15.08-7.41-4.42-4.55-6.24-9.75-6.24-15.99,0-8.06,2.73-14.95,8.45-20.67,6.63-6.76,16.38-11.18,30.16-11.18,6.89,0,15.86,1.17,26.39,7.54l-8.45,22.1c-3.77-2.6-10.66-6.5-17.68-6.5-1.69,0-4.29.26-5.98,1.56-1.17.91-1.56,1.82-1.56,3.12,0,1.82.26,3.51,5.07,4.55l10.01,2.21c7.67,1.69,12.22,4.81,14.82,7.41,5.46,5.33,6.63,11.96,6.63,17.16,0,7.41-1.95,14.3-7.8,20.41ZM409.73,179.25c-3.38,1.69-7.93,3.12-14.95,3.12-13.39,0-21.32-4.81-25.61-8.97-4.81-4.68-8.71-12.09-8.71-22.23s3.9-18.72,9.36-24.18c7.02-7.02,15.6-8.71,23.53-8.71,5.07,0,10.92.78,17.16,3.12v24.7c-4.94-4.42-8.97-4.81-11.05-4.81-2.21,0-4.55.39-6.5,2.34-1.56,1.69-2.47,4.16-2.47,6.37,0,2.6.91,4.81,2.47,6.37s3.64,2.6,6.24,2.6c4.16,0,8.58-1.95,11.7-4.81l-1.17,25.09ZM483.57,172.1c-4.94,5.07-13.78,10.27-28.34,10.27s-23.4-5.2-28.34-10.27c-5.07-5.2-8.71-13.13-8.71-21.84,0-7.41,2.86-15.73,8.71-21.71,4.94-5.07,13.78-10.27,28.34-10.27s23.4,5.2,28.34,10.27c5.85,5.98,8.71,14.3,8.71,21.71,0,8.71-3.64,16.64-8.71,21.84ZM552.6,148.43c-3.9-2.47-6.11-3.38-9.23-3.38-3.38,0-6.11,1.17-8.06,2.86-3.12,2.73-3.64,5.98-3.64,8.97v23.79h-29.51v-60.71h29.77v3.77c0,1.43-.26,2.73-.78,4.03h.52c1.95-3.51,4.81-5.98,7.41-7.41,5.72-3.12,13.13-2.73,13.52-2.73v30.81ZM631.51,155.19h-43.03c-.13,2.86.52,7.02,2.21,8.84.65.78,2.08,1.69,4.42,1.69,1.95,0,3.38-.78,4.42-1.69.91-.78,1.56-2.21,1.95-3.51h28.86c-1.43,4.55-3.51,7.54-6.11,10.4-6.11,6.89-13.65,11.44-27.82,11.44-9.23,0-20.54-1.82-28.73-10.01-3.77-3.77-8.58-10.66-8.58-21.19,0-8.58,3.25-17.03,9.1-22.88,5.72-5.59,14.82-10.01,27.04-10.01,11.57,0,20.15,3.77,26.13,9.62,6.5,6.24,10.14,15.47,10.14,23.92v3.38Z"/><path class="cls-1" d="M455.23,141.67c-2.99,0-4.81,1.17-5.72,2.08-1.43,1.3-2.6,3.38-2.6,6.5s1.17,5.33,2.6,6.63c.91.91,2.73,2.08,5.72,2.08s4.81-1.17,5.72-2.08c1.43-1.3,2.6-3.38,2.6-6.63s-1.17-5.2-2.6-6.5c-.91-.91-2.73-2.08-5.72-2.08Z"/></svg>